PathFileType	4	(x/y/z)	TRC_MarkerData\Passive\Passive_Pref0006.trc
DataRate	CameraRate	NumFrames	NumMarkers	Units	OrigDataRate	OrigDataStartFrame	OrigNumFrames
240	240	7	49	mm	240	40	313
Frame#	Time	R_AC			L_AC			HEAD			STERN			C7			R_IC			L_ASIS			R_ASIS			L_GT			R_GT			L_PSIS			R_PSIS			SACRAL			L_LAT_KNEE			L_MED_KNEE			R_LAT_KNEE			R_MED_KNEE			L_LAT_ANK			L_MED_ANK			R_LAT_ANK			R_MED_ANK			L_THIGH_PROX_POST			L_THIGH_PROX_ANT			L_THIGH_DIST_ANT			L_THIGH_DIST_POST			R_THIGH_PROX_POST			R_THIGH_PROX_ANT			R_THIGH_DIST_ANT			R_THIGH_DIST_POST			L_SHANK_PROX_POST			L_SHANK_PROX_ANT			L_SHANK_DIST_ANT			L_SHANK_DIST_POST			R_SHANK_PROX_POST			R_SHANK_PROX_ANT			R_SHANK_DIST_ANT			R_SHANK_DIST_POST			L_HEEL_LAT			L_HEEL_SUP			L_HEEL_MED			R_HEEL_LAT			R_HEEL_SUP			R_HEEL_MED			L_1ST_MET			L_5TH_MET			L_TOE			R_1ST_MET			R_5TH_MET			R_TOE			
		X1	Y1	Z1	X2	Y2	Z2	X3	Y3	Z3	X4	Y4	Z4	X5	Y5	Z5	X6	Y6	Z6	X7	Y7	Z7	X8	Y8	Z8	X9	Y9	Z9	X10	Y10	Z10	X11	Y11	Z11	X12	Y12	Z12	X13	Y13	Z13	X14	Y14	Z14	X15	Y15	Z15	X16	Y16	Z16	X17	Y17	Z17	X18	Y18	Z18	X19	Y19	Z19	X20	Y20	Z20	X21	Y21	Z21	X22	Y22	Z22	X23	Y23	Z23	X24	Y24	Z24	X25	Y25	Z25	X26	Y26	Z26	X27	Y27	Z27	X28	Y28	Z28	X29	Y29	Z29	X30	Y30	Z30	X31	Y31	Z31	X32	Y32	Z32	X33	Y33	Z33	X34	Y34	Z34	X35	Y35	Z35	X36	Y36	Z36	X37	Y37	Z37	X38	Y38	Z38	X39	Y39	Z39	X40	Y40	Z40	X41	Y41	Z41	X42	Y42	Z42	X43	Y43	Z43	X44	Y44	Z44	X45	Y45	Z45	X46	Y46	Z46	X47	Y47	Z47	X48	Y48	Z48	X49	Y49	Z49	

40	0.16302	-664.72	1501.1	459.1	-694.65	1510.5	49.403	-671.4	1833.7	269.52	-606.12	1478.1	257.4	-746.75	1549.6	256.26	NaN	NaN	NaN	-622.96	1019.7	153.64	-632.19	1019.9	421.78	-708.44	935.81	98.491	-732.04	944.16	460.76	-833.19	1028.9	220.11	-835.02	1029.3	327.75	-842.88	993.64	273.03	-564.12	564.44	148.54	-567.08	580.15	287.36	-796.13	531.51	454.13	-771.49	515.21	321.07	-528.52	111.98	177.71	-536.39	110.89	268.01	-1166.2	246.02	391.77	-1104.4	230.06	306.19	-671.35	755.6	120.4	-606.85	770.85	116.9	-583.49	703.78	132.5	-645.63	686.13	132.13	-772.67	766.66	463.65	-704.63	760.08	468.77	-717.48	684.57	464.86	-786.43	694.02	456.35	-572.99	462.05	169.97	-510.56	474.46	176.46	-502.07	425.6	185.3	-558.86	415.74	168.39	-952.64	432.11	451.48	-903.29	385.98	446.28	-958.48	337.78	431.19	-1008.6	384.09	433.93	-572.09	32.055	182.53	-590.98	58.097	213.66	-580.94	34.15	249.48	-1224.5	294.52	348.61	-1188.8	306.8	324.22	-1197.8	280.51	290.11	-363.46	66.243	292.72	-376.06	60.331	182.16	-317.66	89.366	263.75	-1129.6	85.416	313.4	-1176.7	95.326	413.64	-1116.9	47.251	357.6
41	0.1672	-659.25	1502.1	458.7	-688.72	1511.5	49.019	-665.8	1834.6	268.85	-600.59	1479	257.07	-741.14	1550.6	255.78	NaN	NaN	NaN	-617.72	1020.9	153.07	-626.93	1020.7	421.15	-703.37	937.03	98.031	-725.98	944.52	460.35	-829.2	1030.2	219.79	-829.67	1030.1	327.56	-837.52	994.57	272.77	-560.89	564.69	147.71	-563.68	580.6	286.52	-784.91	530.98	454.28	-760.37	514.75	321.03	-528.02	111.98	177.59	-535.76	111.05	267.82	-1156.7	249.3	392.03	-1095.1	232.18	306.54	-666.97	756.59	119.75	-602.55	771.55	116.27	-579.44	704.3	131.79	-641.76	687.08	131.42	-764.36	766.18	463.59	-696.2	760.42	468.52	-708.16	684.75	464.76	-777.26	693.35	456.42	-570.33	462.4	169.28	-507.87	474.4	175.74	-499.67	425.51	184.65	-556.52	415.97	167.8	-941.49	432.9	451.71	-892.52	386.33	446.48	-948.17	338.63	431.37	-997.85	385.37	434.15	-571.97	32.177	182.52	-590.8	58.277	213.66	-580.79	34.365	249.48	-1214.5	298.3	348.58	-1178.7	310.06	324.14	-1188	283.63	290.25	-363.12	65.588	292.52	-375.84	59.576	181.98	-317.22	88.439	263.48	-1121.8	87.526	314.86	-1169	98.613	414.69	-1109.8	48.835	359.21
42	0.17138	-653.85	1503.2	458.33	-682.81	1512.6	48.662	-660.21	1835.6	268.21	-595.1	1479.9	256.77	-735.56	1551.6	255.33	NaN	NaN	NaN	-612.49	1022.1	152.53	-621.74	1021.6	420.53	-698.31	938.24	97.577	-719.99	944.91	459.95	-825.32	1031.5	219.44	-824.34	1030.8	327.36	-832.2	995.48	272.48	-557.77	564.92	146.92	-560.4	581.03	285.69	-773.67	530.55	454.38	-749.24	514.4	320.94	-527.54	112	177.48	-535.16	111.21	267.63	-1147.1	252.46	392.25	-1085.6	234.26	306.85	-662.63	757.57	119.1	-598.31	772.21	115.69	-575.43	704.81	131.14	-637.95	688.03	130.71	-756.07	765.76	463.5	-687.8	760.83	468.26	-698.88	685.02	464.66	-768.1	692.76	456.46	-567.76	462.73	168.61	-505.26	474.34	175.05	-497.35	425.41	184.02	-554.26	416.2	167.22	-930.26	433.71	451.9	-881.66	386.74	446.64	-937.72	339.52	431.5	-987.01	386.64	434.32	-571.85	32.295	182.52	-590.64	58.448	213.67	-580.64	34.572	249.5	-1204.4	301.78	348.52	-1168.6	313.09	324	-1178.1	286.46	290.36	-362.81	64.974	292.32	-375.63	58.863	181.81	-316.82	87.565	263.22	-1113.6	89.614	316.33	-1160.6	101.84	415.82	-1102	50.556	360.86
43	0.17556	-648.5	1504.2	457.99	-676.95	1513.6	48.33	-654.63	1836.5	267.59	-589.63	1480.8	256.49	-730.01	1552.6	254.9	NaN	NaN	NaN	-607.29	1023.3	152.01	-616.61	1022.5	419.94	-693.26	939.44	97.131	-714.04	945.35	459.56	-821.52	1032.8	219.05	-819.06	1031.6	327.14	-826.91	996.37	272.16	-554.73	565.13	146.15	-557.22	581.44	284.88	-762.43	530.23	454.45	-738.12	514.19	320.8	-527.07	112.01	177.37	-534.58	111.37	267.45	-1137.2	255.5	392.44	-1075.9	236.3	307.13	-658.33	758.55	118.45	-594.13	772.82	115.16	-571.45	705.31	130.52	-634.19	688.98	130.02	-747.82	765.42	463.38	-679.45	761.32	468.02	-689.63	685.38	464.55	-758.96	692.26	456.45	-565.26	463.06	167.95	-502.74	474.28	174.38	-495.11	425.33	183.4	-552.05	416.42	166.66	-918.97	434.54	452.05	-870.72	387.19	446.76	-927.17	340.43	431.59	-976.09	387.91	434.46	-571.74	32.411	182.51	-590.48	58.613	213.67	-580.5	34.773	249.51	-1194.4	304.94	348.45	-1158.5	315.87	323.83	-1168.1	289	290.48	-362.52	64.397	292.14	-375.44	58.19	181.65	-316.43	86.741	262.98	-1104.8	91.67	317.8	-1151.7	104.98	417.02	-1093.6	52.391	362.53
44	0.17974	-643.22	1505.2	457.69	-671.12	1514.7	48.023	-649.05	1837.5	266.99	-584.2	1481.7	256.24	-724.49	1553.6	254.49	NaN	NaN	NaN	-602.11	1024.4	151.51	-611.54	1023.5	419.37	-688.22	940.62	96.693	-708.15	945.82	459.17	-817.76	1034	218.62	-813.8	1032.2	326.9	-821.66	997.25	271.82	-551.79	565.33	145.41	-554.13	581.82	284.1	-751.18	530.02	454.48	-727	514.11	320.64	-526.62	112.04	177.27	-534.03	111.53	267.27	-1127.2	258.4	392.62	-1066.1	238.3	307.39	-654.05	759.51	117.81	-590.01	773.38	114.68	-567.51	705.79	129.96	-630.48	689.93	129.34	-739.59	765.16	463.24	-671.14	761.89	467.77	-680.42	685.83	464.45	-749.83	691.85	456.41	-562.82	463.38	167.31	-500.28	474.22	173.73	-492.92	425.24	182.81	-549.91	416.63	166.12	-907.62	435.39	452.15	-859.7	387.71	446.84	-916.5	341.36	431.64	-965.08	389.18	434.57	-571.63	32.523	182.51	-590.33	58.774	213.67	-580.37	34.966	249.53	-1184.3	307.78	348.4	-1148.4	318.4	323.63	-1158.2	291.24	290.59	-362.24	63.856	291.96	-375.26	57.555	181.51	-316.07	85.962	262.76	-1095.6	93.683	319.27	-1142.2	108.01	418.27	-1084.5	54.313	364.21
45	0.18392	-638.01	1506.2	457.41	-665.32	1515.7	47.739	-643.48	1838.4	266.41	-578.8	1482.6	256.02	-718.99	1554.6	254.11	NaN	NaN	NaN	-596.94	1025.6	151.03	-606.52	1024.4	418.83	-683.19	941.79	96.263	-702.31	946.33	458.8	-814.01	1035.3	218.15	-808.57	1032.9	326.63	-816.44	998.1	271.45	-548.92	565.52	144.7	-551.13	582.19	283.34	-739.95	529.93	454.47	-715.89	514.15	320.44	-526.18	112.07	177.18	-533.49	111.69	267.11	-1117	261.15	392.79	-1056.1	240.23	307.63	-649.8	760.47	117.16	-585.94	773.9	114.25	-563.61	706.27	129.43	-626.83	690.89	128.68	-731.41	764.97	463.08	-662.87	762.53	467.53	-671.25	686.36	464.35	-740.74	691.52	456.33	-560.45	463.68	166.69	-497.88	474.16	173.11	-490.8	425.16	182.25	-547.83	416.84	165.61	-896.24	436.27	452.22	-848.61	388.28	446.88	-905.73	342.31	431.66	-953.99	390.43	434.64	-571.52	32.634	182.52	-590.18	58.93	213.67	-580.25	35.152	249.55	-1174.2	310.3	348.36	-1138.4	320.68	323.43	-1148.3	293.19	290.72	-361.98	63.345	291.81	-375.09	56.955	181.38	-315.73	85.225	262.55	-1085.8	95.641	320.71	-1132.2	110.9	419.56	-1074.8	56.295	365.87
46	0.1881	-632.85	1507.2	457.16	-659.56	1516.8	47.476	-637.92	1839.4	265.87	-573.42	1483.5	255.82	-713.52	1555.6	253.74	NaN	NaN	NaN	-591.8	1026.7	150.57	-601.55	1025.4	418.3	-678.17	942.94	95.84	-696.52	946.88	458.43	-810.24	1036.4	217.66	-803.38	1033.5	326.34	-811.26	998.94	271.05	-546.11	565.7	144.02	-548.21	582.54	282.61	-728.73	529.95	454.42	-704.78	514.32	320.22	-525.76	112.1	177.1	-532.97	111.84	266.95	-1106.7	263.72	392.94	-1045.9	242.09	307.85	-645.57	761.41	116.52	-581.93	774.37	113.87	-559.75	706.72	128.95	-623.22	691.83	128.03	-723.26	764.86	462.89	-654.65	763.25	467.3	-662.12	686.99	464.25	-731.67	691.28	456.21	-558.13	463.98	166.1	-495.55	474.1	172.51	-488.72	425.08	181.7	-545.79	417.04	165.11	-884.82	437.17	452.25	-837.45	388.89	446.9	-894.87	343.27	431.66	-942.84	391.66	434.68	-571.41	32.743	182.52	-590.04	59.085	213.67	-580.13	35.33	249.56	-1164.1	312.5	348.35	-1128.3	322.69	323.24	-1138.4	294.85	290.88	-361.73	62.863	291.66	-374.93	56.388	181.27	-315.4	84.525	262.36	-1075.6	97.534	322.11	-1121.6	113.63	420.87	-1064.5	58.307	367.5
